<?xml version="1.0" encoding="utf-8"?>
<!-- Generator: Adobe Illustrator 24.1.2, SVG Export Plug-In . SVG Version: 6.00 Build 0)  -->
<svg version="1.1" id="Layer_1" xmlns="http://www.w3.org/2000/svg" xmlns:xlink="http://www.w3.org/1999/xlink" x="0px" y="0px"
	 viewBox="0 0 131.4 151.6" style="enable-background:new 0 0 131.4 151.6;" xml:space="preserve">
<path style="fill:none;stroke:#D42327;stroke-width:5;stroke-linecap:round;stroke-linejoin:round;stroke-miterlimit:10;" d="
	M52.1,96.7c-12.3-4-13.6-17.2-11.5-29.7c2.2-12.5,13.2-17.4,18-18.6c5.2-1.3,10.5-1.7,15.7-1.2c4.4,0.5,9,1.7,12.2,5.1
	c4.8,5,5.5,13.4,5.8,21c0.1,4.1,0.2,8.3-1,12.2c-1.3,4.3-4.1,7.9-6.9,11.2c-5.6,6.6-25.8,6.7-28.3,6.5"/>
<path style="fill:none;stroke:#D42327;stroke-width:5;stroke-linecap:round;stroke-linejoin:round;stroke-miterlimit:10;" d="
	M102.8,39.3c1.7-3.2,8.8-5.5,10.5-8.8"/>
<path style="fill:none;stroke:#D42327;stroke-width:5;stroke-linecap:round;stroke-linejoin:round;stroke-miterlimit:10;" d="
	M68.5,25.3c-1.5-5,0.7-13.3,0.9-18.6"/>
<path style="fill:none;stroke:#D42327;stroke-width:5;stroke-linecap:round;stroke-linejoin:round;stroke-miterlimit:10;" d="
	M43.2,114.1c8.3,1.7,16.7,3,25.1,4.1"/>
<path style="fill:none;stroke:#D42327;stroke-width:5;stroke-linecap:round;stroke-linejoin:round;stroke-miterlimit:10;" d="
	M44.2,124.6c5,1.1,10.1,1.8,15.2,2.2"/>
<path style="fill:none;stroke:#D42327;stroke-width:5;stroke-linecap:round;stroke-linejoin:round;stroke-miterlimit:10;" d="
	M43.5,135.6c2.6,0.5,5.3,0.9,7.9,1.4"/>
<path style="fill:none;stroke:#D42327;stroke-width:5;stroke-linecap:round;stroke-linejoin:round;stroke-miterlimit:10;" d="
	M31,45.4c-2.8-2.6-15.7-12.2-18.9-14.6"/>
<path style="fill:none;stroke:#D42327;stroke-width:5;stroke-linecap:round;stroke-linejoin:round;stroke-miterlimit:10;" d="
	M107.9,65.7c2.7,0.5,5.3,0.9,8,1.4"/>
<path style="fill:none;stroke:#D42327;stroke-width:5;stroke-linecap:round;stroke-linejoin:round;stroke-miterlimit:10;" d="
	M23.7,72.5c-3-1.1-6.5-0.7-9.2,0.9"/>
</svg>
