<?xml version="1.0" encoding="utf-8"?>
<!-- Generator: Adobe Illustrator 24.1.2, SVG Export Plug-In . SVG Version: 6.00 Build 0)  -->
<svg version="1.1" id="Layer_1" xmlns="http://www.w3.org/2000/svg" xmlns:xlink="http://www.w3.org/1999/xlink" x="0px" y="0px"
	 viewBox="0 0 352 122" preserveAspectRatio="none">
<style type="text/css">
	.st0{fill:#004CFF;}
</style>
<g>
	<g>
		<path class="st0" d="M6.1,109.9c-0.8-0.2-0.4-1.1-0.7-0.2c-0.1,0.2,0,0.6-0.1,0.9c-0.1,0.8-0.2,1.5-0.2,2.3c0,1.5,0.7,2.5,2.2,2.6
			c6.1,0.5,12.3,0.7,18.4,1c12,0.6,24,1.1,36.1,1.5c24.3,0.8,48.6,1.2,72.9,1.2c24.6,0,49.2-0.5,73.8-1.4c10.8-0.4,21.6,0,32.4,0.6
			c10.8,0.6,21.5,1.4,32.3,0.9c21.5-0.9,43-0.3,64.5-0.1c3,0,6.1,0.1,9.1,0.1c1.3,0,2-1.6,1.1-2.6c-1-1-1.5-3.4-1.8-5
			c-0.6-3-0.8-6-1.1-9c-0.5-6.8-0.6-13.7-0.6-20.5c0-6.9-0.3-13.7-0.4-20.6c-0.1-8.5,0.2-17,0.5-25.6c0.4-10.7,0.4-21.4-0.1-32.1
			c0-0.8-0.7-1.6-1.5-1.5c-1.2,0.1-2.5,0.2-3.7,0.3c-1.9,0.1-1.9,3.1,0,3c1.2-0.1,2.5-0.2,3.7-0.3c-0.5-0.5-1-1-1.5-1.5
			c0.4,9.9,0.4,19.8,0.1,29.7c-0.3,8.5-0.6,17-0.6,25.5c0,7.3,0.4,14.6,0.4,21.9c0,6.9,0.1,13.8,0.6,20.7c0.2,3.6,0.6,7.2,1.2,10.7
			c0.4,2.2,1,4.7,2.5,6.4c0.4-0.9,0.7-1.7,1.1-2.6c-21.5-0.1-43-0.9-64.6-0.3c-5.5,0.2-11,0.5-16.5,0.5c-5.4,0-10.7-0.3-16.1-0.6
			c-10.8-0.6-21.6-1.5-32.5-1.4c-12,0.1-24,0.8-36,1.1c-12.3,0.3-24.6,0.5-37,0.5c-24.1,0.1-48.2-0.2-72.3-0.9
			c-12-0.3-24-0.8-36.1-1.3c-6-0.3-12-0.6-18.1-0.9c-3.1-0.2-6.1-0.3-9.2-0.5c-0.1,0-1-0.1-1-0.1c0,0.1,0.5,0.6,0.4,0.7
			c0,0,0-0.7,0-0.8c0-0.7,0.2-1.5,0.2-2.2c0.1-1.2-0.1-2.7-1.5-3.1C5,106.6,4.2,109.5,6.1,109.9L6.1,109.9z"/>
	</g>
</g>
</svg>
