<?xml version="1.0" encoding="utf-8"?>
<!-- Generator: Adobe Illustrator 24.1.2, SVG Export Plug-In . SVG Version: 6.00 Build 0)  -->
<svg version="1.1" id="Layer_1" xmlns="http://www.w3.org/2000/svg" xmlns:xlink="http://www.w3.org/1999/xlink" x="0px" y="0px"
	 viewBox="0 0 100 109" style="enable-background:new 0 0 100 109;" xml:space="preserve">
<style type="text/css">
	.st0{fill:#D42327;}
</style>
<g>
	<g>
		<path class="st0" d="M53.5,100.4c5.6-2.5,11.5-5.2,15.1-10.4c3.1-4.5,4-11,0.5-15.5c-3.4-4.4-9.7-5.4-14.9-6.2
			c-5-0.7-10.8-0.9-14.9,2.4c-2.1,1.7-4.5,5.3-1.1,7c2.7,1.4,6.6,0.9,9.5,0.6c4.3-0.5,8.6-1.4,12.8-2.6c3.9-1.1,8.6-2.5,11.6-5.4
			c2.2-2.1,2.7-5.1,1-7.6c-1.6-2.4-4-4.4-6.4-6.1c-4.9-3.5-10.7-5.7-16.6-6.8c-4.7-0.9-9.6-1.2-14.4-1.3c-4.5-0.2-9-0.2-13.4,0.1
			c-2.1,0.2-6.9,0.2-7.6,2.9c-0.5,1.6,1,3.5,2.2,4.4c1.7,1.4,3.8,2,5.9,2.3c5.2,0.8,10.7,0.4,15.9-0.3c6-0.9,11.8-2.6,17.4-4.9
			c5.8-2.3,11.5-5.1,17.2-7.7c2.6-1.2,5.1-2.3,7.2-4.3c2-1.9,3.7-4.3,5.1-6.7c1.3-2.3,2.4-4.8,2.8-7.4c0.4-2.8-0.4-5.6-1.8-8
			c-3.3-5.5-9.2-8-15.3-8.8c-3.2-0.4-6.5-0.4-9.7-0.4c-1.9,0-1.9,3,0,3c5.7,0,12-0.2,17.2,2.7c4,2.2,7.7,7,6.6,11.8
			c-1,4.5-4,9.1-7.5,12.1c-1.9,1.7-4.2,2.5-6.5,3.6c-2.5,1.2-5,2.4-7.6,3.5c-9.9,4.6-20,8.5-31,9.1c-3.8,0.2-8.2,0.4-11.9-0.8
			c-0.7-0.2-1.4-0.5-2-1c-0.3-0.2-0.6-0.5-0.8-0.9c-0.1-0.1-0.5-1-0.5-1c0.1,0,0,0.5-0.1,0.6c0,0-0.2,0.1-0.1,0.1
			c0,0,0.6-0.3,0.3-0.2c0.3-0.1,0.5-0.2,0.8-0.3c3.1-0.8,6.5-0.8,9.7-0.8c4.1,0,8.1,0.1,12.2,0.3c9.7,0.6,19.7,2.7,27.2,9.4
			c1.5,1.4,4.6,3.7,3.4,6.1c-0.9,1.7-3.1,2.7-4.8,3.5c-3.3,1.5-6.8,2.4-10.3,3.2c-3.6,0.8-7.2,1.5-10.8,1.7
			c-1.3,0.1-2.8,0.1-3.9-0.1c-0.4-0.1-0.9-0.2-1.3-0.3c-0.4-0.1,0.3,0.1-0.1,0c-0.1,0-0.1-0.1-0.2-0.1c0,0,0,0,0,0
			c-0.1-0.2,0.1,0.3,0,0.2c-0.1-0.2-0.1,0.1,0-0.1c0.1-0.4-0.2,0.3,0-0.1c0.1-0.1,0.2-0.3,0.2-0.4c0.3-0.5,0.8-1,1.2-1.4
			c1.5-1.3,3.6-1.9,5.6-2.2c4.5-0.5,9.4,0.3,13.7,1.5c2.3,0.6,4.6,1.6,6.2,3.5c1.6,1.8,2,4.2,1.8,6.6c-0.6,5.3-4.5,9.1-8.9,11.6
			c-2.4,1.4-4.9,2.5-7.4,3.6C50.2,98.6,51.8,101.1,53.5,100.4L53.5,100.4z"/>
	</g>
</g>
</svg>
