<?xml version="1.0" encoding="utf-8"?>
<!-- Generator: Adobe Illustrator 24.1.2, SVG Export Plug-In . SVG Version: 6.00 Build 0)  -->
<svg version="1.1" id="Layer_1" xmlns="http://www.w3.org/2000/svg" xmlns:xlink="http://www.w3.org/1999/xlink" x="0px" y="0px"
	 viewBox="0 0 82 104" style="enable-background:new 0 0 82 104;" xml:space="preserve">
<style type="text/css">
	.st0{fill:#D42327;}
</style>
<g>
	<g>
		<path class="st0" d="M28.3,5.8c-4,6.7-7.6,13.9-10.2,21.4c-0.3,1,0.5,1.8,1.4,1.9c3.9,0.2,7.7-0.9,11.5-0.7
			c-0.4-0.9-0.7-1.7-1.1-2.6c-5,6.5-10,12.9-15,19.4c-0.7,0.9-0.4,2.7,1.1,2.6c4.5-0.5,8.7-2.1,12.3-4.8c-0.7-0.6-1.5-1.1-2.2-1.7
			c-1.6,8-3.7,15.9-6.3,23.6c-0.5,1.5,1.5,2.4,2.5,1.5c4.1-3.8,8.2-7.7,12.3-11.5c-0.8-0.5-1.7-1-2.5-1.5
			c-2.1,8.3-3.4,16.8-3.9,25.3C28,85,28,91.3,28.7,97.6c0.2,1.7,2.3,2,2.9,0.4c0.8-2.1,1.3-4.3,1.8-6.5c0.8-3.3,1.4-6.7,2-10
			c1.6-8.4,3.1-16.8,4.9-25.2c-0.7,0.3-1.5,0.6-2.2,0.9c4.6,3.3,8.7,7.3,12.3,11.6c1.1,1.3,2.7-0.2,2.5-1.5
			c-1.1-8.1-3.5-15.8-7-23.2c-0.6,0.7-1.1,1.5-1.7,2.2c6,2.3,11.9,4.5,17.9,6.8c1.6,0.6,2.3-1.5,1.5-2.5c-4.2-5.3-8.5-10.7-12.7-16
			c-0.5,0.8-1,1.7-1.5,2.5c5.2,0.8,10.3,2,15.3,3.4c1.5,0.4,2.5-1.4,1.5-2.5c-9.6-9.8-17.8-20.8-24.5-32.7c-0.4-0.6-1-0.8-1.7-0.7
			c-3.6,0.6-7.2-0.1-10.9,0.4C27.3,5.4,28.1,8.3,30,8c3.6-0.6,7.2,0.1,10.9-0.4c-0.6-0.2-1.1-0.5-1.7-0.7
			c6.8,12.1,15.2,23.4,25,33.3c0.5-0.8,1-1.7,1.5-2.5c-5-1.4-10.2-2.6-15.3-3.4c-1.5-0.2-2.4,1.3-1.5,2.5c4.2,5.3,8.5,10.7,12.7,16
			c0.5-0.8,1-1.7,1.5-2.5C57,48,51,45.8,45,43.5c-1.3-0.5-2.2,1.1-1.7,2.2c3.4,7.1,5.7,14.7,6.7,22.4c0.8-0.5,1.7-1,2.5-1.5
			c-3.7-4.6-8.1-8.6-12.9-12.1c-0.8-0.6-2,0-2.2,0.9c-1.8,8.4-3.3,16.8-4.9,25.2c-0.6,3.4-1.3,6.7-2,10c-0.5,2.2-1,4.4-1.8,6.5
			c1,0.1,2,0.3,2.9,0.4C31,91.5,31,85.3,31.3,79.1c0.5-8.4,1.7-16.8,3.8-24.9c0.4-1.5-1.4-2.5-2.5-1.5c-4.1,3.8-8.2,7.7-12.3,11.5
			c0.8,0.5,1.7,1,2.5,1.5c2.6-7.7,4.7-15.6,6.3-23.6c0.2-1.1-1.1-2.6-2.2-1.7c-3.2,2.4-6.8,3.9-10.8,4.4c0.4,0.9,0.7,1.7,1.1,2.6
			c5-6.5,10-12.9,15-19.4c0.8-1,0.3-2.5-1.1-2.6c-3.9-0.2-7.7,0.9-11.5,0.7c0.5,0.6,1,1.3,1.4,1.9c2.4-7.2,6-14.1,9.8-20.6
			C31.9,5.7,29.3,4.2,28.3,5.8L28.3,5.8z"/>
	</g>
</g>
</svg>
