<?xml version="1.0" encoding="utf-8"?>
<!-- Generator: Adobe Illustrator 24.1.2, SVG Export Plug-In . SVG Version: 6.00 Build 0)  -->
<svg version="1.1" id="Layer_1" xmlns="http://www.w3.org/2000/svg" xmlns:xlink="http://www.w3.org/1999/xlink" x="0px" y="0px"
	 viewBox="0 0 82 104" style="enable-background:new 0 0 82 104;" xml:space="preserve">
<style type="text/css">
	.st0{fill:#D42327;}
</style>
<g>
	<g>
		<path class="st0" d="M22.3,13.7c-0.1,3.2-0.8,6.3-1.5,9.5c-0.7,3-1.2,6-1.3,9.1c-0.1,1.6-0.3,3.2-0.4,4.8
			c-0.1,1.3-0.3,3.7,1.1,4.4c0.7,0.3,1.3,0.2,1.8-0.2c2.4-1.9,4-4.7,6.4-6.6c-0.9-0.4-1.7-0.7-2.6-1.1c-0.1,2.9-0.4,5.8-0.7,8.7
			c-0.3,2.8-0.7,5.8-0.4,8.7c0.1,1.2,1.6,2.1,2.6,1.1c2.5-2.8,5.5-5.2,8-8c-0.9-0.4-1.7-0.7-2.6-1.1C33.4,53.5,31,64,31.5,74.6
			c0.1,1.7,2.4,2,2.9,0.4c1.2-3.7,3-7.2,5.3-10.2c-0.8-0.2-1.7-0.4-2.5-0.7c1.8,8.8,4.6,17.3,8.5,25.4c0.6,1.3,3,0.7,2.8-0.8
			c-0.9-7.5-1.6-15-2-22.5c-0.6,0.5-1.3,1-1.9,1.4c5.2,1.8,10.8,2.6,16.3,2.3c1.2-0.1,2-1.6,1.1-2.6c-5.8-5.6-11.7-11.2-17.5-16.9
			c-0.4,0.9-0.7,1.7-1.1,2.6c5.3-0.3,10.6,0,15.9,0.9c1.9,0.3,2.6-2.2,0.8-2.9c-3.9-1.5-6.8-4.7-9.4-7.9c-2.7-3.3-5.2-6.8-8.5-9.6
			c-0.4,0.9-0.7,1.7-1.1,2.6c6.4,0.4,12.9,1,19.2,2c1.5,0.2,2.8-1.9,1.2-2.7c-8.2-3.9-11.6-14.5-20.9-16.4c-0.1,1-0.3,2-0.4,2.9
			c4.8,0.5,9.5,1.3,14.2,2.3c1.7,0.4,2.5-1.8,1.2-2.7c-5.1-3.8-10.3-7.5-15.4-11.3c-2.2-1.6-4.2-3.5-7-3c-3,0.6-6.1,1.5-9.1,2.3
			c-1.9,0.5-1.1,3.4,0.8,2.9c2.8-0.7,5.5-1.4,8.3-2.1c1.3-0.3,2,0,3.1,0.8c1.2,0.9,2.4,1.7,3.6,2.6c4.7,3.5,9.5,6.9,14.2,10.4
			c0.4-0.9,0.8-1.8,1.2-2.7c-5-1.1-10-1.9-15-2.4c-1.7-0.2-2,2.6-0.4,2.9c4.3,0.9,7.4,4.2,10.2,7.4c3,3.3,5.9,6.8,10,8.8
			c0.4-0.9,0.8-1.8,1.2-2.7c-6.7-1-13.3-1.7-20-2.1c-1.3-0.1-2,1.7-1.1,2.6c6.7,5.8,10.5,14.9,19.2,18.3c0.3-1,0.5-1.9,0.8-2.9
			c-5.5-0.9-11.1-1.2-16.7-1c-1.3,0.1-2,1.6-1.1,2.6c5.8,5.6,11.7,11.2,17.5,16.9c0.4-0.9,0.7-1.7,1.1-2.6
			c-5.3,0.3-10.5-0.4-15.5-2.1c-0.9-0.3-2,0.5-1.9,1.4c0.4,7.5,1.1,15,2,22.5c0.9-0.3,1.9-0.5,2.8-0.8c-3.7-7.8-6.5-16.1-8.2-24.7
			c-0.2-1-1.8-1.5-2.5-0.7c-2.7,3.5-4.8,7.3-6.1,11.5c1,0.1,2,0.3,2.9,0.4C34,64,36.4,53.5,35.8,42.9c-0.1-1.2-1.6-2.1-2.6-1.1
			c-2.5,2.8-5.5,5.2-8,8c0.9,0.4,1.7,0.7,2.6,1.1c-0.3-2.9,0.1-5.8,0.4-8.7c0.3-2.9,0.6-5.8,0.7-8.7c0-1.4-1.6-1.8-2.6-1.1
			c-2.4,1.9-4,4.7-6.4,6.6c0.6-0.1,1.2-0.2,1.8-0.2c0.3,0.1,0.4,0.5,0.4,0.5c0,0,0-0.3,0-0.1c0-0.3,0-0.7,0-1c0-0.9,0.1-1.7,0.1-2.6
			c0.1-1.5,0.3-3.1,0.3-4.6c0.4-5.9,2.7-11.4,2.8-17.4C25.4,11.7,22.4,11.7,22.3,13.7L22.3,13.7z"/>
	</g>
</g>
</svg>
