<?xml version="1.0" encoding="utf-8"?>
<!-- Generator: Adobe Illustrator 24.1.2, SVG Export Plug-In . SVG Version: 6.00 Build 0)  -->
<svg version="1.1" id="Layer_1" xmlns="http://www.w3.org/2000/svg" xmlns:xlink="http://www.w3.org/1999/xlink" x="0px" y="0px"
	 viewBox="0 0 324 373" style="enable-background:new 0 0 324 373;" xml:space="preserve">
<style type="text/css">
	.st0{fill:#FFFFFF;}
</style>
<g>
	<g>
		<path class="st0" d="M38,14.9c20.4-1,40.8-2,61.2-2.8c23.2-1,46.4-1.9,69.6-2.7c22.1-0.8,44.2-1.4,66.4-1.9
			C252.6,7,270,6.7,287.3,6.8c5.8,0,11.6,0.1,17.3,0.4c1.9,0.1,3.8,0.2,5.7,0.4c1.4,0.1,1.8,0.1,3.3,0.5c0.2,0,0.4,0.1,0.5,0.2
			c0.3,0-0.3-0.2,0.1,0c-0.2-0.4-0.5-0.9-0.7-1.3c-0.3,8.6-0.5,17.3-0.7,25.9c-0.3,12.8-0.5,25.6-0.7,38.4
			c-0.3,15.1-0.5,30.3-0.7,45.4c-0.2,15.6-0.4,31.2-0.6,46.8c-0.1,14.3-0.3,28.5-0.3,42.8c0,10.9-0.1,21.9,0,32.8
			c0.1,6.5,0.3,12.9,0.4,19.4c0.3,11.3,0.5,22.7,0.7,34c0.3,14,0.5,27.9,0.7,41.9c0.1,9.5,0.3,19.1,0.2,28.6c0,0.9,0,1.7-0.1,2.6
			c0.5-0.5,1-1,1.5-1.5c-13.6-1.4-27.2-2.7-40.8-3.9c-19.4-1.8-38.8-3.8-58.3-4.7c-21.5-0.9-43.1-0.6-64.7-0.1
			c-23.7,0.5-47.3,1.4-71,2.4c-16.7,0.7-33.5,1.5-50.2,1.9c-2,0-4.1,0.1-6.1,0.1c-0.6,0-1.2,0-1.9-0.1c-0.1,0-0.2,0-0.3,0
			c-0.3,0,0.1,0,0.1,0c-0.1,0.2-0.7-0.5,0,0.1c0.6,0.5,0.6,1.1,0.4,0.2c-0.1-0.6-0.2-1.2-0.3-1.8c-0.3-2.1-0.6-4-0.8-6
			c-2.2-17.5-3.9-35.1-5.5-52.6c-2.1-23.6-4-47.3-5.4-71c-1.5-26-1.5-51.9-1.3-77.9c0.3-37.5,1.1-74.9,2.4-112.4
			c0.3-9.1,0.7-18.1,1-27.2c0.1-1.9-2.9-1.9-3,0C6.7,48.9,5.6,86.8,5.1,124.8c-0.4,29.5-1,59.2,0.3,88.7c1,23.6,2.8,47.1,4.8,70.6
			c1.7,20,3.6,40.1,5.9,60c0.6,5.1,1.1,10.3,2,15.4c0.2,1,0.3,2.3,1.2,2.8c0.8,0.5,2.1,0.4,3,0.4c4.9,0.1,9.8-0.1,14.7-0.3
			c8.4-0.3,16.8-0.6,25.3-1c22.9-0.9,45.8-1.9,68.7-2.6c23.1-0.7,46.3-1.2,69.4-0.8c18.8,0.3,37.4,1.9,56.1,3.6
			c18.1,1.6,36.2,3.3,54.3,5.1c1.1,0.1,2.1,0.2,3.2,0.3c0.8,0.1,1.4-0.8,1.5-1.5c0.5-7.3,0.1-14.8,0-22.2
			c-0.1-13.5-0.4-27.1-0.6-40.6c-0.2-12.6-0.4-25.3-0.7-37.9c-0.1-6.7-0.4-13.3-0.5-19.9c-0.2-9.9-0.2-19.8-0.1-29.7
			c0-13.6,0.1-27.2,0.2-40.8c0.1-15.4,0.3-30.9,0.5-46.3c0.2-15.4,0.4-30.8,0.7-46.2c0.2-13.5,0.5-27.1,0.7-40.6
			c0.2-9.8,0.4-19.6,0.7-29.5c0-1.6,0.1-3.2,0.1-4.9c0-0.5-0.3-1-0.7-1.3c-2.1-1.2-5.2-1.1-7.5-1.3C303.2,4,298.1,3.9,293,3.8
			c-16.4-0.2-32.9,0.1-49.3,0.4c-21.9,0.4-43.8,1.1-65.8,1.8c-23.4,0.8-46.7,1.7-70.1,2.6c-21,0.9-42.1,1.8-63.1,2.9
			c-2.3,0.1-4.5,0.2-6.8,0.3C36.1,12,36.1,15,38,14.9L38,14.9z"/>
	</g>
</g>
</svg>
