<?xml version="1.0" encoding="utf-8"?>
<!-- Generator: Adobe Illustrator 24.1.2, SVG Export Plug-In . SVG Version: 6.00 Build 0)  -->
<svg version="1.1" id="Layer_1" xmlns="http://www.w3.org/2000/svg" xmlns:xlink="http://www.w3.org/1999/xlink" x="0px" y="0px"
	 viewBox="0 0 500 400" preserveAspectRatio="none">
<style type="text/css">
	.st0{fill:#D42327;}
</style>
<g>
	<g>
		<path class="st0" d="M7,32.5C7,53.8,6.8,75,6.7,96.3c-0.2,25.1-0.4,50.3-0.7,75.4c-0.2,25.2-0.5,50.5-0.6,75.7
			c-0.2,21.9-0.3,43.9-0.2,65.8c0,14.9,0,29.8,0.5,44.7c0.1,3.7,0.2,7.5,0.7,11.2c0.1,0.9,0.2,2.1,0.6,2.9c0.3,0.5,0.6,0.7,1.1,1
			c1.6,0.7,4,0.7,5.7,1.1c2.2,0.4,4.4,0.8,6.6,1.1c34.6,5.8,69.6,8.4,104.6,9.4c36.8,1.1,73.6,0.5,110.3-0.4
			c37.5-0.9,75-2.1,112.5-2.2c37.9-0.1,75.8,0.8,113.5,4.2c9.1,0.8,18.1,1.8,27.2,2.9c0.8,0.1,1.5-0.8,1.5-1.5
			c0.5-49,1.7-98,2.6-147c0.9-51,1.4-102,0.5-153.1c-0.5-26.7-1.4-53.3-3.1-80c-0.1-0.8-0.6-1.5-1.5-1.5C439,4.5,389.5,2,340,0.9
			c-48.3-1.1-96.6-0.7-144.7,3.3c-27.9,2.3-55.7,5.9-83.2,10.8c-1.9,0.3-1.1,3.2,0.8,2.9c48.7-8.7,98-12.9,147.3-14.1
			c48.2-1.2,96.3,0.3,144.5,2.1c27.9,1.1,55.9,2.2,83.8,3c-0.5-0.5-1-1-1.5-1.5c3.1,48.8,3.7,97.8,3.5,146.7
			c-0.2,51.1-1.2,102.1-2.2,153.1c-0.5,26.7-1,53.4-1.3,80.2c0.5-0.5,1-1,1.5-1.5c-37.1-4.5-74.5-6.4-111.9-6.9
			c-37.3-0.5-74.7,0.4-112,1.3c-36.6,0.9-73.3,1.9-109.9,1.7c-35.3-0.3-70.7-1.7-105.7-5.9c-8.7-1-17.5-2.3-26.2-3.7
			c-4.1-0.7-8.2-1.4-12.3-2.2c0.1,0-1.6-0.3-1.6-0.3c0,0.2-0.1-5.5,0.3,0.1c0,0,0.5,0.4,0.4,0.4c-0.1,0,0,0.3,0,0
			c0-1.1-0.3-1.4-0.4-2.4c-0.2-1.7-0.3-3.3-0.4-5c-0.7-13-0.7-26-0.7-39c-0.1-20.5,0-41.1,0.1-61.6c0.1-24.6,0.4-49.2,0.6-73.8
			c0.2-25.2,0.5-50.4,0.7-75.6C9.7,90.9,9.9,68.6,10,46.3c0-4.6,0-9.2,0-13.8C10,30.6,7,30.6,7,32.5L7,32.5z"/>
	</g>
</g>
</svg>
