<?xml version="1.0" encoding="utf-8"?>
<!-- Generator: Adobe Illustrator 24.1.2, SVG Export Plug-In . SVG Version: 6.00 Build 0)  -->
<svg version="1.1" id="Layer_1" xmlns="http://www.w3.org/2000/svg" xmlns:xlink="http://www.w3.org/1999/xlink" x="0px" y="0px"
	 viewBox="0 0 324 373" style="enable-background:new 0 0 324 373;" xml:space="preserve">
<style type="text/css">
	.st0{fill:#FFFFFF;}
</style>
<g>
	<g>
		<path class="st0" d="M11.5,7.6c38.3,1.9,76.6,3.9,115,5.3c38.1,1.4,76.3,2.4,114.4,2.4c21.5,0,43-0.3,64.5-1.1
			c1.9-0.1,1.9-3.1,0-3c-38.3,1.3-76.7,1.3-115,0.6c-38.2-0.7-76.3-2.2-114.4-4c-21.5-1-43-2.1-64.5-3.2C9.6,4.5,9.6,7.5,11.5,7.6
			L11.5,7.6z"/>
	</g>
</g>
<g>
	<g>
		<path class="st0" d="M304.8,10.9c-2.3,11.7-3.4,23.7-4.3,35.6c-1.1,15-1.8,30-2.3,45c-0.9,24.4-1.2,48.9-2.1,73.3
			c-0.2,6.6,0,13.2,0.3,19.8c0.3,10.6,0.8,21.2,1.3,31.8c1.2,25.5,2.6,51,4,76.5c1,18.6,2.2,37.2,3,55.9c0,1.1,0.1,2.2,0.1,3.2
			c0.5-0.5,1-1,1.5-1.5c-12.1-0.7-24.3,0.7-36.3,1.9c-14.1,1.4-28.2,2.6-42.4,2.8c-11.8,0.2-23.7-0.1-35.5,0
			c-9.2,0.1-18.3,0.3-27.5,0.5c-21.1,0.6-42.3,1.3-63.4,2.1c-19.3,0.7-38.5,1.5-57.8,2.1c-6.7,0.2-13.4,0.4-20,0.5
			c-3.6,0-7.2,0.2-10.8-0.2c0.5,0.1-0.9-0.3-0.2,0c0.2,0.4,0.5,0.9,0.7,1.3c0.4-11.8,0.8-23.5,1-35.3c0.1-6.5-0.3-12.9-0.2-19.4
			c0.1-8,0.4-16,0.7-23.9c0.4-11.8,0.9-23.6,1.4-35.4c0.6-14.4,1.2-28.7,1.9-43.1c0.7-15.4,1.3-30.9,1.9-46.3
			c0.6-15.3,1.2-30.6,1.6-45.8c0.4-13.6,0.8-27.3,1-40.9c0.2-10.7,0.3-21.5,0-32.2c-0.1-6.5-0.2-13.1-1.3-19.5
			c-0.1-0.8-0.3-1.6-0.6-2.3c-0.6-1.8-3.5-1-2.9,0.8c0.3,0.8,0.4,1.6,0.6,2.4c0.2,1.4,0.3,1.7,0.4,3.1c0.3,3.3,0.5,6.5,0.6,9.8
			c0.4,9.8,0.3,19.7,0.3,29.5C19.3,75.9,19,89,18.6,102c-0.4,15-1,30.1-1.5,45.1c-0.6,15.5-1.2,31-1.9,46.5
			c-0.6,14.7-1.3,29.4-1.9,44.1c-0.5,12.5-1.1,25-1.6,37.6c-0.4,9-0.7,18-0.9,27c-0.1,5,0.1,10,0.2,15c0.2,13.6-0.4,27.3-0.9,40.9
			c0,1.1-0.1,2.2-0.1,3.3c0,0.5,0.3,1.1,0.7,1.3c2.3,1,5.7,0.6,8.2,0.6c5.9,0,11.8-0.2,17.7-0.3c18.5-0.5,37-1.3,55.6-2
			c21.4-0.8,42.8-1.6,64.3-2.2c19.4-0.6,38.8-0.8,58.2-0.7c15.6,0.1,31-0.4,46.5-1.9c12.5-1.2,25-2.7,37.5-2.9c2.5,0,5,0,7.6,0.1
			c0.8,0,1.5-0.7,1.5-1.5c-0.5-16.8-1.7-33.5-2.6-50.3c-1.4-25.4-2.8-50.8-4-76.2c-0.9-19-2.1-38.1-2-57.1c0-8,0.5-16,0.7-23.9
			c0.3-13.7,0.6-27.4,1.1-41.1c0.5-15.2,1-30.4,2-45.6c0.8-12.9,1.7-25.8,3.6-38.6c0.4-2.5,0.8-4.9,1.3-7.3
			C308,9.8,305.2,9,304.8,10.9L304.8,10.9z"/>
	</g>
</g>
</svg>
