<?xml version="1.0" encoding="utf-8"?>
<!-- Generator: Adobe Illustrator 24.1.2, SVG Export Plug-In . SVG Version: 6.00 Build 0)  -->
<svg version="1.1" id="Layer_1" xmlns="http://www.w3.org/2000/svg" xmlns:xlink="http://www.w3.org/1999/xlink" x="0px" y="0px"
	 viewBox="0 0 500 319.2" preserveAspectRatio="none">
<g>
	<path style="fill:#D42327;" d="M485.1,312.1l-1.5,0c-70.8-0.5-145.5-4.5-217.8-8.4c-83.6-4.5-170.1-9.2-251.8-8.5l-1.3,0l-0.2-1.2
		c-1.5-7.9-0.1-44.2,1.7-90.2C16.9,134.6,20.2,48.4,15.9,8l-0.2-1.7l1.7,0.1c159.1,7.2,289.1,6.7,430.5,5.4c0.9,0,1.5,0.7,1.5,1.5
		c0,0.8-0.7,1.5-1.5,1.5C307,16,177.4,16.5,19,9.4c4,41.3,0.8,126.1-1.8,194.4c-1.6,42-3,78.5-1.9,88.3c81.4-0.6,167.4,4,250.6,8.5
		c71.7,3.9,145.9,7.9,216.2,8.4c0.8-21.1,1.9-39.9,2.8-58.1c1.9-34.7,3.7-67.5,3.5-107.5c-0.1-14,0.3-29.2,0.6-45.2
		c0.6-30.8,1.3-62.6-0.6-90.3c-0.1-0.8,0.6-1.5,1.4-1.6c0.8-0.1,1.5,0.6,1.6,1.4c1.9,27.8,1.2,59.7,0.6,90.5
		c-0.3,16-0.7,31.2-0.6,45.2c0.2,40.1-1.6,72.9-3.5,107.6c-1,18.6-2.1,37.9-2.9,59.5L485.1,312.1z"/>
</g>
</svg>
