<?xml version="1.0" encoding="utf-8"?>
<!-- Generator: Adobe Illustrator 24.1.2, SVG Export Plug-In . SVG Version: 6.00 Build 0)  -->
<svg version="1.1" id="Layer_1" xmlns="http://www.w3.org/2000/svg" xmlns:xlink="http://www.w3.org/1999/xlink" x="0px" y="0px"
	 viewBox="0 0 324 373" style="enable-background:new 0 0 324 373;" xml:space="preserve">
<style type="text/css">
	.st0{fill:#FFFFFF;}
</style>
<g>
	<g>
		<path class="st0" d="M49.2,7.1c15.2,0.3,30.4,0.3,45.7,0.4c17.9,0.1,35.8,0.1,53.8,0.2c19,0.1,38,0.3,57,0.6
			c18.1,0.4,36.2,0.9,54.3,1.8c15.6,0.8,31.2,1.9,46.8,3.8c1.6,0.2,3.3,0.4,4.9,0.6c-0.3-0.6-0.7-1.2-1-1.8
			c-3.1,22.1-5.3,44.4-6.8,66.6c-1.6,22.6-2.4,45.3-2.8,67.9c-0.4,22.9-0.4,45.8-0.1,68.7c0.3,22.7,0.8,45.5,1.4,68.2
			c0.6,22.5,1.2,45,1.6,67.5c0.1,2.8,0.1,5.6,0.2,8.4c0.5-0.5,1-1,1.5-1.5c-16.2-2-32.5-2.9-48.8-3.5c-20.6-0.8-41.3-1.1-61.9-1.1
			c-22.2,0-44.4,0.2-66.7,0.7c-21,0.4-42,1-63,1.7c-17,0.6-34,1.2-51.1,2c-1.7,0.1-3.4,0.2-5.1,0.2c0.5,0.6,1,1.3,1.4,1.9
			c3.3-22.2,5.2-44.5,6.4-66.8c1.2-23,1.6-46.1,1.6-69.1c0-23.2-0.3-46.5-0.6-69.7c-0.3-23-0.6-46-0.4-69
			c0.2-21.9,0.8-43.9,2.4-65.8c0.2-2.7,0.4-5.3,0.6-8c0.2-1.9-2.8-1.9-3,0c-1.8,21.7-2.6,43.5-2.9,65.3c-0.3,22.7-0.1,45.4,0.2,68.1
			c0.3,23.2,0.7,46.5,0.7,69.7c0.1,23.1-0.2,46.2-1.2,69.3c-1,22.3-2.7,44.7-5.6,66.9c-0.4,2.8-0.8,5.6-1.2,8.4
			c-0.1,0.9,0.4,1.9,1.4,1.9c16.3-0.8,32.7-1.4,49-2c20.7-0.7,41.3-1.3,62-1.8c22.2-0.5,44.4-0.8,66.7-0.8c21,0,42,0.1,62.9,0.8
			c17,0.5,34,1.3,50.8,3.2c1.7,0.2,3.4,0.4,5,0.6c0.8,0.1,1.5-0.8,1.5-1.5c-0.8-45.2-2.4-90.3-3-135.5c-0.7-45.2-0.5-90.5,2.2-135.7
			c1.5-25.2,3.8-50.3,7.3-75.3c0.1-0.7-0.2-1.7-1-1.8c-15-2-30.1-3.2-45.3-4.1c-18-1.1-36-1.7-54.1-2.1c-19-0.4-38-0.6-57-0.8
			c-18.2-0.1-36.5-0.1-54.7-0.2C85.7,4.5,70,4.4,54.2,4.2c-1.7,0-3.3-0.1-5-0.1C47.3,4.1,47.3,7.1,49.2,7.1L49.2,7.1z"/>
	</g>
</g>
</svg>
