<?xml version="1.0" encoding="utf-8"?>
<!-- Generator: Adobe Illustrator 24.1.2, SVG Export Plug-In . SVG Version: 6.00 Build 0)  -->
<svg version="1.1" id="Layer_1" xmlns="http://www.w3.org/2000/svg" xmlns:xlink="http://www.w3.org/1999/xlink" x="0px" y="0px"
	 viewBox="0 0 324 373" style="enable-background:new 0 0 324 373;" xml:space="preserve">
<style type="text/css">
	.st0{fill:#FFFFFF;}
	.st1{fill:none;}
</style>
<g>
	<path class="st0" d="M8.3,372.6l-0.6-2.1c-12.9-49,0.3-311.8,0.5-314.4c0.2-4.2,0.4-8.8,0.6-13.8c0.3-8.2,0.7-17.1,1.3-25.1
		c-2.2,0-4.5,0-6.6,0v-3c2.3,0,4.6,0,6.9,0c0.2-2.2,0.5-4.3,0.7-6.3l3,0.4c-0.3,1.9-0.5,3.8-0.7,5.9c86.1-0.1,213-2.2,302.6-7.6
		l1.6-0.1l0,1.6c0.1,14.5-0.7,28.5-1.4,42c-0.8,14.4-1.6,29.3-1.4,44.7c0.2,12.7,0.2,45.6,0.2,83.8c0,64,0,143.6,0.9,182.3
		c0.1,0.3,0.1,0.5,0.1,0.8c-0.2,1.4-0.2,1.6-13.6,3.1c-8.2,0.9-18.8,1.9-29.9,2.8c-16.9,1.4-48.8,3.7-72.7,3.7c-0.2,0-0.3,0-0.4,0
		c-18.5,0-42.9-0.6-68.8-1.3c-51.2-1.3-114.9-2.8-120.6,1.3L8.3,372.6z M51.2,365.7c20.5,0,47.5,0.6,79.5,1.4
		c25.8,0.6,50.2,1.2,68.7,1.3c0.2,0,0.3,0,0.5,0c39.7,0,104-6.2,113.1-7.9c-0.9-39-0.9-118.1-0.9-181.8c0-38.2,0-71.2-0.2-83.8
		c-0.2-15.5,0.6-30.4,1.4-44.9c0.7-13,1.5-26.5,1.4-40.3C225,15.1,98.8,17.1,13.2,17.2c-0.7,8-1,17-1.3,25.2
		c-0.2,4.9-0.4,9.6-0.6,13.8c-0.1,2.6-13.1,259.1-1,311.7C15.8,366.3,30,365.7,51.2,365.7z"/>
</g>
<path class="st1" d="M99.2,12.1"/>
</svg>
