<?xml version="1.0" encoding="utf-8"?>
<!-- Generator: Adobe Illustrator 24.1.2, SVG Export Plug-In . SVG Version: 6.00 Build 0)  -->
<svg version="1.1" id="Layer_1" xmlns="http://www.w3.org/2000/svg" xmlns:xlink="http://www.w3.org/1999/xlink" x="0px" y="0px"
	 viewBox="0 0 500 395" preserveAspectRatio="none">
<style type="text/css">
	.st0{fill:#D42327;}
</style>
<g>
	<g>
		<path class="st0" d="M7.4,47.2c0.4,19.4,0.5,38.9,0.5,58.4c0.1,23,0.1,46,0.2,69C8.3,199,8.5,223.4,9,247.8
			c0.5,23.2,1.2,46.4,2.6,69.6c1.1,19.9,2.6,39.8,5.2,59.5c0.3,2.1,0.6,4.2,0.9,6.3c0.1,0.6,0.9,1.2,1.4,1.1
			c60.6-7.9,121.7-11.2,182.8-12.3c61.7-1.1,123.5,0.2,185.2,1.7c34.1,0.8,68.3,1.7,102.4,2.3c0.7,0,1.6-0.7,1.5-1.5
			c-2.7-20.2-4.3-40.6-5.6-61c-1.6-25.3-2.7-50.6-3.4-75.9c-0.8-27.1-1.3-54.3-1.5-81.4c-0.2-25.8-0.1-51.5,0.2-77.3
			c0.3-21.3,0.8-42.6,1.7-63.9c0.1-2.1,0.2-4.3,0.3-6.4c0.1-1.1-1-1.6-1.9-1.4c-59.1,8.2-119,6.9-178.5,4.5
			c-59.3-2.4-118.8-6-178.1-2.4c-33,2-65.9,6.3-98,14.1c-1.9,0.5-1.1,3.3,0.8,2.9C84.7,12.2,144.3,9.9,203.4,11
			c59.6,1.1,119.1,5.7,178.7,5.4c33.3-0.1,66.5-1.8,99.5-6.4c-0.6-0.5-1.3-1-1.9-1.4c-1,20.4-1.6,40.8-1.9,61.3
			c-0.4,25.4-0.5,50.7-0.4,76.1c0.1,27.1,0.5,54.3,1.3,81.4c0.7,25.7,1.7,51.5,3.2,77.2c1.2,21.2,2.8,42.5,5.3,63.6
			c0.3,2.1,0.5,4.2,0.8,6.4c0.5-0.5,1-1,1.5-1.5c-61.3-1-122.5-3-183.8-3.9c-61.6-0.9-123.3-0.7-184.9,2.9c-34,2-68,4.9-101.7,9.4
			c0.5,0.4,1,0.7,1.4,1.1c-6-42-7.3-84.7-8.3-127.1c-1.1-47.3-1.1-94.6-1.3-141.9c-0.1-22.1-0.1-44.1-0.5-66.2
			C10.4,45.3,7.4,45.3,7.4,47.2L7.4,47.2z"/>
	</g>
</g>
</svg>
