<?xml version="1.0" encoding="utf-8"?>
<!-- Generator: Adobe Illustrator 24.1.2, SVG Export Plug-In . SVG Version: 6.00 Build 0)  -->
<svg version="1.1" id="Layer_1" xmlns="http://www.w3.org/2000/svg" xmlns:xlink="http://www.w3.org/1999/xlink" x="0px" y="0px"
	 viewBox="0 0 868 122" style="enable-background:new 0 0 868 122;" xml:space="preserve">
<style type="text/css">
	.st0{fill:#D42327;}
</style>
<g>
	<g>
		<path class="st0" d="M55.7,63.1c49.5,0.2,98.9-0.1,148.4-0.8c50.2-0.7,100.3-1.7,150.5-2.8c50.7-1.2,101.5-2.5,152.2-3.8
			c50.5-1.3,101-2.6,151.4-3.6c49.4-1,98.7-1.9,148.1-2.3c6.2-0.1,12.3-0.1,18.5-0.1c1.9,0,1.9-3,0-3c-49.5,0.3-98.9,1.1-148.4,2.1
			c-50.2,1-100.3,2.2-150.5,3.5c-50.7,1.3-101.5,2.6-152.2,3.8c-50.5,1.2-101,2.3-151.4,3c-49.4,0.7-98.8,1.2-148.1,1.1
			c-6.2,0-12.3,0-18.5-0.1C53.8,60.1,53.8,63.1,55.7,63.1L55.7,63.1z"/>
	</g>
</g>
<g>
	<g>
		<path class="st0" d="M43.2,75.1c26.5,0.1,52.9,0.3,79.4,0.4c29.8,0.1,59.5,0.1,89.3,0c38.5-0.2,77.1-0.6,115.6-1.1
			c44.1-0.6,88.1-1.3,132.2-1.1c40.9,0.3,81.9,1,122.8,0.6c4.1,0,8.2-0.1,12.4-0.2c1.9,0,1.9-3,0-3c-39.7,0.7-79.5,0-119.2-0.3
			c-44-0.3-87.9,0.1-131.9,0.7c-40,0.6-79.9,1-119.9,1.3c-30.4,0.2-60.9,0.2-91.3,0.1c-26.6-0.1-53.1-0.2-79.7-0.3
			c-3.2,0-6.5,0-9.7,0C41.2,72,41.2,75,43.2,75.1L43.2,75.1z"/>
	</g>
</g>
</svg>
