<?xml version="1.0" encoding="utf-8"?>
<!-- Generator: Adobe Illustrator 24.1.2, SVG Export Plug-In . SVG Version: 6.00 Build 0)  -->
<svg version="1.1" id="Layer_1" xmlns="http://www.w3.org/2000/svg" xmlns:xlink="http://www.w3.org/1999/xlink" x="0px" y="0px"
	 viewBox="0 0 1024 1024" style="enable-background:new 0 0 1024 1024;" xml:space="preserve">
<style type="text/css">
	.st0{fill:url(#SVGID_1_);}
	.st1{fill:url(#SVGID_2_);}
	.st2{fill:url(#SVGID_3_);}
	.st3{fill:url(#SVGID_4_);}
</style>
<linearGradient id="SVGID_1_" gradientUnits="userSpaceOnUse" x1="478.278" y1="631.4634" x2="899.1254" y2="362.4239">
	<stop  offset="0" style="stop-color:#3831A8"/>
	<stop  offset="0.2019" style="stop-color:#2C2683"/>
	<stop  offset="0.4225" style="stop-color:#211D63"/>
	<stop  offset="0.6344" style="stop-color:#19164B"/>
	<stop  offset="0.8317" style="stop-color:#15113D"/>
	<stop  offset="1" style="stop-color:#131038"/>
</linearGradient>
<path class="st0" d="M430.4,302.5v649.9c0,21.1,22.9,34.3,41.1,23.8l403.3-232.8c29.6-17.1,47.9-48.7,47.9-82.9V294.2
	c0-6.2-5.1-11.2-11.3-11.1l-470.1,8.4C435.3,291.5,430.4,296.5,430.4,302.5z"/>
<g>
	<linearGradient id="SVGID_2_" gradientUnits="userSpaceOnUse" x1="200.8403" y1="269.8459" x2="766.1943" y2="581.9026">
		<stop  offset="6.014442e-04" style="stop-color:#8A83DE"/>
		<stop  offset="0.2404" style="stop-color:#7E76DE"/>
		<stop  offset="0.6775" style="stop-color:#6E65DE"/>
		<stop  offset="1" style="stop-color:#685FDE"/>
	</linearGradient>
	<path class="st1" d="M866.8,700.9H66.9C36,700.9,11,675.9,11,645V188.4c0-30.9,25-55.9,55.9-55.9h799.9c30.9,0,55.9,25,55.9,55.9
		V645C922.7,675.9,897.7,700.9,866.8,700.9z"/>
</g>
<linearGradient id="SVGID_3_" gradientUnits="userSpaceOnUse" x1="715.0886" y1="257.3421" x2="922.7355" y2="257.3421">
	<stop  offset="0" style="stop-color:#3931A8"/>
	<stop  offset="1" style="stop-color:#3931A8;stop-opacity:0.5"/>
</linearGradient>
<path class="st2" d="M726.4,132.5c-7.2,21.3-11.3,44.5-11.3,68.9c0,99.9,66.7,180.8,149,180.8c20.8,0,40.7-5.2,58.7-14.6V132.5
	H726.4z"/>
<linearGradient id="SVGID_4_" gradientUnits="userSpaceOnUse" x1="753.7317" y1="128.2329" x2="998.9402" y2="273.3638">
	<stop  offset="0" style="stop-color:#FF5D30"/>
	<stop  offset="0.284" style="stop-color:#FF5728"/>
	<stop  offset="1" style="stop-color:#FF4A19"/>
</linearGradient>
<circle class="st3" cx="864" cy="193.5" r="149"/>
</svg>
