<svg width="63" height="27" viewBox="0 0 63 27" fill="none" xmlns="http://www.w3.org/2000/svg">
<g clip-path="url(#clip0_31_97)">
<path d="M0 1.03388C0.00638416 0.753372 0.123908 0.486877 0.326734 0.29299C0.52956 0.0991022 0.801083 -0.00630612 1.08161 -6.06434e-05H61.912C62.1926 -0.00803333 62.4648 0.0957457 62.6688 0.288451C62.8728 0.481157 62.992 0.747008 63 1.02753V25.966C62.9933 26.2465 62.8755 26.5129 62.6725 26.7066C62.4695 26.9003 62.1979 27.0054 61.9173 26.9989H1.08584C0.805309 27.0063 0.533323 26.902 0.329697 26.7089C0.126072 26.5158 0.00747955 26.2497 0 25.9692L0 1.03388Z" fill="#4138C2"/>
<path d="M10.1172 16.5791L11.2676 15.0086C11.9513 15.5716 12.7302 15.961 13.5451 15.961C14.1208 15.961 14.4203 15.7092 14.4203 15.3494V15.3377C14.4203 15.0022 14.1685 14.798 13.1853 14.4509C11.5978 13.9111 10.4887 13.3365 10.4887 11.8136V11.7776C10.4887 10.2558 11.6528 9.18909 13.4848 9.18909C14.6119 9.18909 15.6014 9.50022 16.4809 10.2082L15.3898 11.8136C14.814 11.3702 14.1198 11.0464 13.4361 11.0464C12.945 11.0464 12.6688 11.2866 12.6688 11.5977V11.6094C12.6688 11.9808 12.9323 12.1724 13.9991 12.5682C15.593 13.0836 16.5878 13.7323 16.5878 15.1568V15.1811C16.5878 16.8108 15.3294 17.8183 13.5313 17.8183C12.2798 17.838 11.0647 17.397 10.1172 16.5791Z" fill="white"/>
<path d="M18.5918 9.30444H21.59C23.568 9.30444 24.8624 10.3352 24.8624 12.2168V12.2645C24.8624 14.2752 23.3998 15.2372 21.5667 15.2605H20.7434V17.6945H18.595L18.5918 9.30444ZM21.4927 13.4995C22.2473 13.4995 22.7034 13.0561 22.7034 12.3491V12.3131C22.7034 11.5459 22.26 11.149 21.481 11.149H20.7402V13.4984H21.4927V13.4995Z" fill="white"/>
<path d="M28.275 9.25684H30.4562L33.4195 17.6945H31.1547L30.6636 16.1844H28.0242L27.5447 17.6945H25.3223L28.275 9.25684ZM30.1207 14.4583L29.3418 12.001L28.5629 14.4583H30.1207Z" fill="white"/>
<path d="M35.8393 11.2464H33.7607V9.30444H40.0652V11.2464H37.994V17.6945H35.8393V11.2464Z" fill="white"/>
<path d="M41.9277 9.30444H44.0857V17.6945H41.9277V9.30444Z" fill="white"/>
<path d="M47.0576 9.30444H52.835V11.1977H49.1912V12.5735H52.472V14.3599H49.1912V15.8002H52.8826V17.6945H47.0618V9.30444H47.0576Z" fill="white"/>
</g>
<defs>
<clipPath id="clip0_31_97">
<rect width="63" height="27" fill="white"/>
</clipPath>
</defs>
</svg>
