<?xml version="1.0" encoding="utf-8"?>
<!-- Generator: Adobe Illustrator 24.1.2, SVG Export Plug-In . SVG Version: 6.00 Build 0)  -->
<svg version="1.1" id="Layer_1" xmlns="http://www.w3.org/2000/svg" xmlns:xlink="http://www.w3.org/1999/xlink" x="0px" y="0px"
	 viewBox="0 0 120 262" style="enable-background:new 0 0 120 262;" xml:space="preserve">
<style type="text/css">
	.st0{fill:#D42327;}
</style>
<g>
	<g>
		<path class="st0" d="M77.6,243.5c-2.4-13.9-3.6-28.1-4.3-42.2c-0.8-16.1-0.9-32.3-0.5-48.4c0.4-16.3,1.4-32.6,3-48.9
			c1.4-14.6,3.3-29.3,6-43.7c2.1-11.2,4.6-22.5,8.5-33.2c0.4-1,0.8-2.1,1.2-3.1c0.7-1.8-2.2-2.6-2.9-0.8c-4.2,10.1-6.7,21-8.9,31.7
			c-2.9,14.3-4.8,28.7-6.4,43.2c-1.7,16.2-2.8,32.5-3.4,48.7c-0.6,16.3-0.6,32.6,0,48.9c0.6,14.6,1.7,29.2,3.9,43.7
			c0.2,1.6,0.5,3.2,0.8,4.8C75,246.2,77.9,245.4,77.6,243.5L77.6,243.5z"/>
	</g>
</g>
<g>
	<g>
		<path class="st0" d="M57.8,17.7c-6.7,16.2-12.4,32.9-16.8,50c-4.4,17-7.6,34.3-9.6,51.7c-1.1,9.9-1.9,19.8-2.2,29.8
			c-0.1,1.9,2.9,1.9,3,0c0.6-17.5,2.5-35,5.6-52.2c3.1-17.2,7.3-34.1,12.7-50.7c3.1-9.4,6.5-18.7,10.3-27.8
			C61.5,16.7,58.6,16,57.8,17.7L57.8,17.7z"/>
	</g>
</g>
</svg>
