<?xml version="1.0" encoding="utf-8"?>
<!-- Generator: Adobe Illustrator 24.1.2, SVG Export Plug-In . SVG Version: 6.00 Build 0)  -->
<svg version="1.1" id="Layer_1" xmlns="http://www.w3.org/2000/svg" xmlns:xlink="http://www.w3.org/1999/xlink" x="0px" y="0px"
	 viewBox="0 0 106 72" style="enable-background:new 0 0 106 72;" xml:space="preserve">
<style type="text/css">
	.st0{fill:#D42327;}
</style>
<g>
	<g>
		<path class="st0" d="M61.6,20c13.6,7.8,24.8,19.2,32.4,32.8c0.9,1.7,3.5,0.2,2.6-1.5c-7.8-14.1-19.5-25.9-33.5-33.9
			C61.5,16.5,60,19.1,61.6,20L61.6,20z"/>
	</g>
</g>
<g>
	<g>
		<path class="st0" d="M11,11.7c11.5,3.5,22.2,9.2,32.2,15.6c11,7.1,21.4,15.3,30.7,24.5c4.8,4.8,9.3,9.9,13.2,15.4
			c1.1,1.6,3.7,0.1,2.6-1.5c-7.4-10.4-16.7-19.5-26.6-27.6C53,29.7,41.9,22.2,30.1,16.3c-5.9-3-11.9-5.6-18.2-7.5
			C10,8.2,9.2,11.1,11,11.7L11,11.7z"/>
	</g>
</g>
</svg>
